<svg xmlns="http://www.w3.org/2000/svg" viewBox="0 0 64 64" role="img" aria-label="Agents Course">
  <!-- Learning AI + Hugging Face: open book + neural spark -->
  <rect width="64" height="64" rx="14" fill="#1c1d1f"/>
  <!-- Open book (learning) -->
  <path fill="#b8860b" d="M10 44.5V23.2c7.2-3.6 13.2-1.9 18.5 2.6l3.5 3v18.4c-6.2-3.6-12.2-2.4-18.5 1.2-1.3.7-3.5.2-3.5-1.9z"/>
  <path fill="#d4a017" d="M54 44.5V23.2c-7.2-3.6-13.2-1.9-18.5 2.6l-3.5 3v18.4c6.2-3.6 12.2-2.4 18.5 1.2 1.3.7 3.5.2 3.5-1.9z"/>
  <path stroke="#1c1d1f" stroke-width="2" stroke-linecap="round" d="M32 28.5v18"/>
  <!-- AI spark (3 nodes) -->
  <circle cx="32" cy="13" r="3.2" fill="#f7f1e1"/>
  <circle cx="23.5" cy="18.5" r="2.4" fill="#b8860b"/>
  <circle cx="40.5" cy="18.5" r="2.4" fill="#b8860b"/>
  <path stroke="#f7f1e1" stroke-width="1.6" stroke-linecap="round" d="M29.5 14.5 25.2 17.2M34.5 14.5 38.8 17.2"/>
</svg>
